HIERARCHY
ROOT Hips
{
  OFFSET 0 0 0
  CHANNELS 6 Xposition Yposition Zposition Zrotation Yrotation Xrotation
  JOINT LeftThigh
  {
    OFFSET 8.409438 0 -5.917753
    CHANNELS 3 Zrotation Yrotation Xrotation
    JOINT LeftLeg
    {
      OFFSET 0 0 -42.358652
      CHANNELS 3 Zrotation Yrotation Xrotation
      JOINT LeftFoot
      {
        OFFSET 0 0 -39.357303
        CHANNELS 3 Zrotation Yrotation Xrotation
      }
    }
  }
  JOINT RightThigh
  {
    OFFSET -8.409438 0 -5.917753
    CHANNELS 3 Zrotation Yrotation Xrotation
    JOINT RightLeg
    {
      OFFSET 0 0 -42.358652
      CHANNELS 3 Zrotation Yrotation Xrotation
      JOINT RightFoot
      {
        OFFSET 0 0 -39.357303
        CHANNELS 3 Zrotation Yrotation Xrotation
      }
    }
  }
  JOINT SpineLow
  {
    OFFSET 0 0 4.719101
    CHANNELS 3 Zrotation Yrotation Xrotation
    JOINT SpineMid
    {
      OFFSET 0 0 12.899191
      CHANNELS 3 Zrotation Yrotation Xrotation
      JOINT Chest
      {
        OFFSET 0 0 12.899191
        CHANNELS 3 Zrotation Yrotation Xrotation
        JOINT LeftShoulder
        {
          OFFSET 7.550562 1.41573 9.438202
          CHANNELS 3 Zrotation Yrotation Xrotation
          JOINT LeftArm
          {
            OFFSET 9.155056 0 4.247191
            CHANNELS 3 Zrotation Yrotation Xrotation
            JOINT LeftForearm
            {
              OFFSET 0 0 25.771955
              CHANNELS 3 Zrotation Yrotation Xrotation
              JOINT LeftHand
              {
                OFFSET 0 0 25.197169
                CHANNELS 3 Zrotation Yrotation Xrotation
              }
            }
          }
        }
        JOINT RightShoulder
        {
          OFFSET -7.550562 1.41573 9.438202
          CHANNELS 3 Zrotation Yrotation Xrotation
          JOINT RightArm
          {
            OFFSET -9.155056 0 4.247191
            CHANNELS 3 Zrotation Yrotation Xrotation
            JOINT RightForearm
            {
              OFFSET 0 0 -25.771955
              CHANNELS 3 Zrotation Yrotation Xrotation
              JOINT RightHand
              {
                OFFSET 0 0 -25.197169
                CHANNELS 3 Zrotation Yrotation Xrotation
              }
            }
          }
        }
        JOINT Neck
        {
          OFFSET 0 0 15.101124
          CHANNELS 3 Zrotation Yrotation Xrotation
          JOINT Head
          {
            OFFSET 0 0 11.325843
            CHANNELS 3 Zrotation Yrotation Xrotation
            End Site
            {
              OFFSET 0 0 14.157303
            }
          }
        }
      }
    }
  }
}
MOTION
Frames: 10
Frame Time: 0.0
0.0  101.685394  0.0  0.57098  -23.514141  -99.194913  26.112636  -18.528513  2.221342  1.5249  8.362282  30.629437  9.984485  4.678112  3.29018  7.085908  9.453057  -9.994003  8.408745  7.327833  21.756465  5.587009  0.965239  -4.318901  -1.174027  -0.294011  2.774513  -3.238036  -0.667674  7.596315  -3.238036  -0.667675  7.596315  -14.999658  25.525717  3.031649  -142.526409  64.338695  -103.189666  -17.156334  -32.53852  119.673741  122.868948  35.370777  -9.77288  6.141677  -4.641901  13.381261  84.791788  34.005808  33.287871  -66.119628  33.917241  -88.396873  75.052171  20.112692  31.198129  12.944203  2.961867  -4.12601  9.726512  2.135263  -3.158292  
0.0  101.685394  0.0  0.515394  -23.744955  -99.124577  26.70782  -18.728466  1.891655  0.846413  8.60059  30.814144  9.763902  4.817982  3.1889  5.453616  9.151568  -11.130492  9.244509  7.520185  22.75221  6.5317  1.119371  -4.267463  -1.22841  -0.310267  2.807911  -3.388645  -0.704053  7.688899  -3.388645  -0.704053  7.688899  -14.655416  25.582783  3.063681  -141.525778  64.175835  -102.425867  -17.354962  -32.410159  120.080772  122.715816  35.239935  -9.254241  5.383563  -4.703789  12.830381  87.268435  33.749572  34.372689  -66.208105  33.795483  -88.327237  75.476225  20.209044  29.339765  13.481872  3.0792  -4.379926  10.131654  2.214192  -3.354088  
0.0  101.685394  0.0  0.723669  -23.252301  -98.793811  26.748042  -18.451104  1.239181  0.343318  8.952307  31.308669  9.469433  4.862819  2.998283  4.647131  9.101603  -11.974158  9.55452  8.002538  23.61684  6.655695  1.114377  -4.202893  -1.332847  -0.279099  2.788866  -3.66989  -0.607934  7.636007  -3.66989  -0.607934  7.636007  -14.68608  25.445352  2.998226  -140.604174  64.057832  -101.596488  -17.540483  -32.29254  120.347185  122.615759  35.092438  -8.706839  5.424689  -4.617124  12.773522  88.326659  34.133243  34.832349  -66.197131  33.736097  -88.265752  76.001582  20.465478  27.23237  13.899996  3.21553  -4.676142  10.447589  2.306869  -3.5816  
0.0  101.685394  0.0  0.955582  -22.364772  -98.284083  27.606156  -18.340577  0.890662  -1.659401  9.716241  30.86705  9.330128  4.889037  2.818155  3.326437  9.053805  -12.926441  9.997554  8.467471  24.446617  6.696635  1.158892  -4.122445  -1.514547  -0.248967  2.720517  -4.161903  -0.509058  7.448637  -4.161903  -0.509058  7.448637  -14.35113  25.462795  3.036635  -139.699764  63.90762  -100.713451  -17.709607  -32.046236  120.787927  122.564985  34.931897  -8.087596  4.366405  -4.710377  11.99441  90.851712  33.552065  35.960404  -67.48063  33.818117  -88.175295  75.665435  21.612694  23.718553  14.38366  3.300961  -4.901591  10.812061  2.362091  -3.755426  
0.0  101.685394  0.0  1.318815  -21.083683  -97.781569  27.188601  -17.657682  -0.108331  -2.628165  10.305568  31.534563  9.392976  4.843941  2.624064  1.424973  8.933395  -13.799318  10.739083  9.173324  25.116384  6.620557  1.175762  -3.981586  -1.688211  -0.188396  2.654869  -4.628868  -0.32886  7.26596  -4.628868  -0.32886  7.265961  -14.444587  25.318893  2.927362  -138.830081  63.822456  -99.668699  -17.901823  -31.712696  121.079128  122.542303  34.757526  -7.366322  4.24953  -4.606439  11.700319  91.772226  33.558081  36.448083  -67.506693  34.074537  -88.129043  76.288985  22.525  21.789508  14.691835  3.361649  -5.14737  11.044958  2.399341  -3.943036  
0.0  101.685394  0.0  1.914969  -19.149651  -97.592434  26.181417  -16.821643  -0.95196  -3.275779  10.890401  32.638801  8.707931  4.604468  1.969021  -1.465227  8.748125  -14.301617  12.081003  10.051629  25.588731  6.296006  1.254666  -3.799736  -1.945345  -0.084589  2.619037  -5.319392  -0.020339  7.160353  -5.319391  -0.020339  7.160353  -14.467862  25.265342  2.74868  -138.026758  63.763443  -98.561869  -18.125329  -31.205808  121.467094  122.508656  34.542836  -6.538885  4.213088  -4.53048  11.185477  92.593745  33.175274  36.994225  -68.727278  34.27304  -88.105398  76.87545  23.895871  19.279977  14.950987  3.37559  -5.377328  11.240729  2.402065  -4.117435  
0.0  101.685394  0.0  2.687145  -16.411333  -97.553964  24.634666  -15.853096  -1.800411  -4.403724  11.598091  33.550611  8.768331  4.519599  1.755418  -4.889633  9.467123  -14.646105  12.986858  10.396204  25.803404  6.007096  1.461803  -3.645364  -2.302741  0.052052  2.603456  -6.280391  0.389465  7.103987  -6.280392  0.389465  7.103988  -14.635716  25.263583  2.416017  -137.220206  63.76632  -97.23407  -18.367346  -30.578358  121.69178  122.408274  34.266669  -5.615964  4.400885  -4.491016  10.432179  93.14518  32.398624  37.577757  -68.958015  34.636505  -88.203198  77.942467  24.614784  18.447303  15.141667  3.346948  -5.659412  11.385172  2.371957  -4.329529  
0.0  101.685394  0.0  3.344277  -13.002686  -97.293191  22.822056  -14.877933  -2.949876  -5.551886  12.347147  34.363484  8.79297  4.376811  1.658928  -8.033492  10.477913  -14.985004  12.690107  10.788042  25.929723  6.0857  1.798933  -3.64053  -2.747413  0.169435  2.566477  -7.482375  0.752913  6.985835  -7.482375  0.752913  6.985836  -14.763235  25.415153  1.960784  -136.649063  63.793265  -95.825408  -18.476458  -29.805548  121.698239  122.201506  33.890756  -4.680513  4.753904  -4.285824  9.692354  93.469787  31.365993  37.997451  -69.321778  34.962464  -88.387816  79.082331  25.044116  17.823256  15.284579  3.250551  -5.977151  11.493453  2.290374  -4.566439  
0.0  101.685394  0.0  3.717717  -8.924146  -96.819608  20.710795  -14.015967  -4.276498  -6.451958  12.834757  35.041919  8.486837  4.214145  1.595299  -11.610789  11.272171  -15.014041  12.238185  11.30458  25.802353  6.090712  2.096445  -3.817382  -3.271521  0.233083  2.512469  -8.90765  0.974169  6.822086  -8.90765  0.974169  6.822087  -14.745068  25.823551  1.349624  -136.797095  63.984304  -94.640943  -18.340719  -28.839644  121.373969  121.84527  33.504404  -3.922594  5.283112  -3.862814  9.019662  93.443771  30.03509  38.150251  -69.664116  35.148782  -88.709219  80.251498  25.139516  17.044796  15.338985  3.074608  -6.286966  11.534552  2.150018  -4.794926  
0.0  101.685394  0.0  3.907854  -4.318533  -96.166385  18.593139  -13.331992  -5.632163  -7.202974  13.044916  35.497906  7.761633  4.093642  1.497493  -14.905358  12.325907  -14.631451  11.299424  11.465064  25.421921  5.626951  2.346055  -4.033747  -3.84388  0.250838  2.445261  -10.469969  1.070549  6.62519  -10.46997  1.07055  6.625191  -14.630584  26.461045  0.373795  -138.153417  64.441732  -94.184578  -17.867999  -27.422412  120.73674  121.465827  33.312392  -3.463641  6.025443  -3.142733  8.437958  92.900318  28.442419  37.902738  -70.154171  35.012323  -89.239086  81.376162  25.043608  15.564472  15.280923  2.839796  -6.59358  11.490567  1.966684  -5.018967  
